<svg xmlns="http://www.w3.org/2000/svg" viewBox="0 0 210 48" fill="none">
  <!-- RBI Seal -->
  <g transform="translate(6, 4)">
    <circle cx="20" cy="20" r="19" fill="#FDFBF7" stroke="#1B365D" stroke-width="2" />
    <circle cx="20" cy="20" r="16.5" fill="none" stroke="#D4AF37" stroke-width="1.2" stroke-dasharray="1.5 1.5" />
    <!-- RBI Palm Tree and Tiger Silhouette (Stylized) -->
    <path d="M19 10 C18 13 15 16 13 18 M21 10 C22 13 25 16 27 18 M20 9 L20 22 M16 12 C18 14 22 14 24 12" stroke="#1B365D" stroke-width="1.3" stroke-linecap="round" fill="none" />
    <path d="M14 26 C15 24 17 24 20 24 C23 24 25 24 26 26 C26 28 23 29 20 29 C17 29 14 28 14 26 Z" fill="#D4AF37" stroke="#1B365D" stroke-width="0.8" />
    <path d="M12 28 C10 26 8 28 10 30 C13 32 27 32 30 30 C32 28 30 26 28 28" fill="#1B365D" />
  </g>
  <!-- RBI OPGSP Caption / Text -->
  <g transform="translate(52, 11)">
    <text x="0" y="11" font-family="system-ui, -apple-system, BlinkMacSystemFont, 'Segoe UI', Roboto, sans-serif" font-weight="800" font-size="12" fill="#1B365D" letter-spacing="0.5">RESERVE BANK OF INDIA</text>
    <rect x="0" y="15.5" width="150" height="15" rx="3" fill="#1B365D" />
    <text x="5" y="26.5" font-family="system-ui, -apple-system, BlinkMacSystemFont, 'Segoe UI', Roboto, sans-serif" font-weight="700" font-size="8.5" fill="#FFFFFF" letter-spacing="0.4">OPGSP COMPLIANT MODEL</text>
  </g>
</svg>
